# xmcd
#
# Track frame offsets: 
#        150
#        12525
#        27262
#        37588
#        54669
#        62147
#        73342
#        86103
#        96701
#        107193
#        122258
#
# Disc length: 1795 seconds
#
# Revision: 0
# Processed by: cddbd v1.5.1PL0 Copyright (c) Steve Scherf et al.
# Submitted via: ExactAudioCopy v0.95a5
#
DISCID=9807010b
DTITLE=Cliff Wagner and the Old #7 - Take Me Back to the Delta
DYEAR=2003
DGENRE=Bluegrass
TTITLE0=East Virginia (Traditional)
TTITLE1=Take Me Back To The Delta (Cliff Wagner)
TTITLE2=Rump Fulla Buckshot (Cliff Wagner)
TTITLE3=Road Trip (Cliff Wagner)
TTITLE4=Banjo Special (Don Reno)
TTITLE5=Little White Chapel (Cliff Wagner)
TTITLE6=It Takes One To Know One (H. Howard and F. Hart)
TTITLE7=Black Mountain Blues (Traditional)
TTITLE8=Dog Bite Your Hide (Smokey Ward)
TTITLE9=Waiting (Cliff Wagner)
TTITLE10=I'm Gone, Long Gone (Don Reno and Authur L. Smiley)
EXTD=
EXTT0=
EXTT1=
EXTT2=
EXTT3=
EXTT4=
EXTT5=
EXTT6=
EXTT7=
EXTT8=
EXTT9=
EXTT10=
PLAYORDER=
